<mxfile host="Electron" modified="2024-02-09T13:40:16.306Z" agent="Mozilla/5.0 (Windows NT 10.0; Win64; x64) AppleWebKit/537.36 (KHTML, like Gecko) draw.io/22.1.16 Chrome/120.0.6099.109 Electron/28.1.0 Safari/537.36" etag="Cdhuda_Xm38x18CtGXkg" version="22.1.16" type="device">
  <diagram name="Page-1" id="ew7vi9b7o_5ddHdVxSJt">
    <mxGraphModel dx="840" dy="575" grid="0" gridSize="10" guides="1" tooltips="1" connect="1" arrows="1" fold="1" page="1" pageScale="1" pageWidth="850" pageHeight="1100" math="0" shadow="0">
      <root>
        <mxCell id="0" />
        <mxCell id="1" parent="0" />
        <mxCell id="TxPhmfMa8DXI36r2z3gs-55" value="" style="group;fillColor=#232136;strokeColor=#232136;strokeWidth=60;" parent="1" vertex="1" connectable="0">
          <mxGeometry x="141" y="65" width="647" height="360" as="geometry" />
        </mxCell>
        <mxCell id="TxPhmfMa8DXI36r2z3gs-26" value="" style="sketch=0;outlineConnect=0;fontColor=#232F3E;gradientColor=none;fillColor=#DB918D;strokeColor=none;dashed=0;verticalLabelPosition=bottom;verticalAlign=top;align=center;html=1;fontSize=12;fontStyle=0;aspect=fixed;pointerEvents=1;shape=mxgraph.aws4.user;container=0;fillStyle=auto;" parent="TxPhmfMa8DXI36r2z3gs-55" vertex="1">
          <mxGeometry x="66.5" y="85" width="57" height="57" as="geometry" />
        </mxCell>
        <mxCell id="TxPhmfMa8DXI36r2z3gs-32" value="" style="endArrow=openThin;html=1;rounded=0;labelBackgroundColor=default;strokeColor=#D88F8C;strokeWidth=4;align=center;verticalAlign=middle;fontFamily=Helvetica;fontSize=11;fontColor=default;shape=connector;endFill=0;" parent="TxPhmfMa8DXI36r2z3gs-55" edge="1">
          <mxGeometry width="50" height="50" relative="1" as="geometry">
            <mxPoint x="94.83000000000001" y="149" as="sourcePoint" />
            <mxPoint x="94.83000000000001" y="186" as="targetPoint" />
          </mxGeometry>
        </mxCell>
        <mxCell id="ZW6nNcWDt0XmGfBWngsh-83" value="" style="endArrow=none;html=1;rounded=0;labelBackgroundColor=default;strokeColor=#D88F8C;strokeWidth=4;align=center;verticalAlign=middle;fontFamily=Helvetica;fontSize=11;fontColor=default;shape=connector;" parent="TxPhmfMa8DXI36r2z3gs-55" edge="1">
          <mxGeometry width="50" height="50" relative="1" as="geometry">
            <mxPoint x="138" y="184" as="sourcePoint" />
            <mxPoint x="209" y="67" as="targetPoint" />
          </mxGeometry>
        </mxCell>
        <mxCell id="ZW6nNcWDt0XmGfBWngsh-75" value="" style="sketch=0;outlineConnect=0;fontColor=#232F3E;gradientColor=none;fillColor=#DB918D;strokeColor=#DB918D;dashed=0;verticalLabelPosition=bottom;verticalAlign=top;align=center;html=1;fontSize=12;fontStyle=0;aspect=fixed;pointerEvents=1;shape=mxgraph.aws4.action;fontFamily=Helvetica;container=0;rotation=0;" parent="TxPhmfMa8DXI36r2z3gs-55" vertex="1">
          <mxGeometry x="392" y="112" width="63" height="63" as="geometry" />
        </mxCell>
        <mxCell id="ZW6nNcWDt0XmGfBWngsh-107" value="" style="endArrow=openThin;html=1;rounded=0;labelBackgroundColor=default;strokeColor=#D88F8C;strokeWidth=4;align=center;verticalAlign=middle;fontFamily=Helvetica;fontSize=11;fontColor=default;shape=connector;endFill=0;" parent="TxPhmfMa8DXI36r2z3gs-55" edge="1">
          <mxGeometry width="50" height="50" relative="1" as="geometry">
            <mxPoint x="253" y="90" as="sourcePoint" />
            <mxPoint x="244" y="68" as="targetPoint" />
          </mxGeometry>
        </mxCell>
        <mxCell id="jY-FyGYHLhkBgDmtVujV-5" value="" style="sketch=0;outlineConnect=0;fontColor=#232F3E;gradientColor=none;fillColor=#DB918D;strokeColor=none;dashed=0;verticalLabelPosition=bottom;verticalAlign=top;align=center;html=1;fontSize=12;fontStyle=0;aspect=fixed;shape=mxgraph.aws4.application_discovery_service_aws_agentless_collector;rotation=0;container=0;" parent="TxPhmfMa8DXI36r2z3gs-55" vertex="1">
          <mxGeometry x="225" y="94" width="72" height="72" as="geometry" />
        </mxCell>
        <mxCell id="jY-FyGYHLhkBgDmtVujV-3" value="" style="sketch=0;outlineConnect=0;fontColor=#232F3E;gradientColor=none;fillColor=#DB918D;strokeColor=none;dashed=0;verticalLabelPosition=bottom;verticalAlign=top;align=center;html=1;fontSize=12;fontStyle=0;aspect=fixed;shape=mxgraph.aws4.mainframe_modernization_analyzer;rotation=0;container=0;" parent="TxPhmfMa8DXI36r2z3gs-55" vertex="1">
          <mxGeometry x="195" width="63" height="63" as="geometry" />
        </mxCell>
        <mxCell id="ZW6nNcWDt0XmGfBWngsh-74" value="" style="sketch=0;outlineConnect=0;fontColor=#232F3E;gradientColor=none;fillColor=#DB918D;strokeColor=#DB918D;dashed=0;verticalLabelPosition=bottom;verticalAlign=top;align=center;html=1;fontSize=12;fontStyle=0;aspect=fixed;pointerEvents=1;shape=mxgraph.aws4.backup_plan;fontFamily=Helvetica;container=0;rotation=0;" parent="TxPhmfMa8DXI36r2z3gs-55" vertex="1">
          <mxGeometry x="335" y="10" width="70" height="70" as="geometry" />
        </mxCell>
        <mxCell id="TxPhmfMa8DXI36r2z3gs-36" value="" style="endArrow=openThin;html=1;rounded=0;labelBackgroundColor=default;strokeColor=#D88F8C;strokeWidth=4;align=center;verticalAlign=middle;fontFamily=Helvetica;fontSize=11;fontColor=default;shape=connector;endFill=0;" parent="TxPhmfMa8DXI36r2z3gs-55" edge="1">
          <mxGeometry width="50" height="50" relative="1" as="geometry">
            <mxPoint x="292" y="192" as="sourcePoint" />
            <mxPoint x="284" y="171" as="targetPoint" />
          </mxGeometry>
        </mxCell>
        <mxCell id="TxPhmfMa8DXI36r2z3gs-37" value="" style="endArrow=none;html=1;rounded=0;labelBackgroundColor=default;strokeColor=#D88F8C;strokeWidth=4;align=center;verticalAlign=middle;fontFamily=Helvetica;fontSize=11;fontColor=default;shape=connector;endFill=0;startArrow=openThin;startFill=0;" parent="TxPhmfMa8DXI36r2z3gs-55" edge="1">
          <mxGeometry width="50" height="50" relative="1" as="geometry">
            <mxPoint x="335" y="51" as="sourcePoint" />
            <mxPoint x="270" y="43" as="targetPoint" />
          </mxGeometry>
        </mxCell>
        <mxCell id="TxPhmfMa8DXI36r2z3gs-38" value="" style="endArrow=none;html=1;rounded=0;labelBackgroundColor=default;strokeColor=#D88F8C;strokeWidth=4;align=center;verticalAlign=middle;fontFamily=Helvetica;fontSize=11;fontColor=default;shape=connector;startArrow=openThin;startFill=0;" parent="TxPhmfMa8DXI36r2z3gs-55" source="ZW6nNcWDt0XmGfBWngsh-75" edge="1">
          <mxGeometry width="50" height="50" relative="1" as="geometry">
            <mxPoint x="423" y="103" as="sourcePoint" />
            <mxPoint x="389" y="88" as="targetPoint" />
          </mxGeometry>
        </mxCell>
        <mxCell id="TxPhmfMa8DXI36r2z3gs-52" value="" style="endArrow=openThin;html=1;rounded=0;labelBackgroundColor=default;strokeColor=#D88F8C;strokeWidth=4;align=center;verticalAlign=middle;fontFamily=Helvetica;fontSize=11;fontColor=default;shape=connector;endFill=0;" parent="TxPhmfMa8DXI36r2z3gs-55" edge="1">
          <mxGeometry width="50" height="50" relative="1" as="geometry">
            <mxPoint x="423" y="282" as="sourcePoint" />
            <mxPoint x="450" y="282" as="targetPoint" />
          </mxGeometry>
        </mxCell>
        <mxCell id="TxPhmfMa8DXI36r2z3gs-53" value="" style="endArrow=none;html=1;rounded=0;labelBackgroundColor=default;strokeColor=#D88F8C;strokeWidth=4;align=center;verticalAlign=middle;fontFamily=Helvetica;fontSize=11;fontColor=default;shape=connector;startArrow=openThin;startFill=0;" parent="TxPhmfMa8DXI36r2z3gs-55" edge="1">
          <mxGeometry width="50" height="50" relative="1" as="geometry">
            <mxPoint x="372" y="189" as="sourcePoint" />
            <mxPoint x="397" y="168" as="targetPoint" />
          </mxGeometry>
        </mxCell>
        <mxCell id="ZW6nNcWDt0XmGfBWngsh-76" value="" style="group;strokeColor=#DB918D;rounded=1;strokeWidth=4;container=0;" parent="TxPhmfMa8DXI36r2z3gs-55" vertex="1" connectable="0">
          <mxGeometry x="225" y="197" width="190" height="160" as="geometry" />
        </mxCell>
        <mxCell id="ZW6nNcWDt0XmGfBWngsh-56" value="" style="sketch=0;outlineConnect=0;fontColor=#232F3E;gradientColor=none;strokeColor=#DB918D;fillColor=none;dashed=0;verticalLabelPosition=bottom;verticalAlign=top;align=center;html=1;fontSize=12;fontStyle=0;aspect=fixed;shape=mxgraph.aws4.resourceIcon;resIcon=mxgraph.aws4.house;fontFamily=Helvetica;container=0;" parent="TxPhmfMa8DXI36r2z3gs-55" vertex="1">
          <mxGeometry x="245" y="207" width="68" height="68" as="geometry" />
        </mxCell>
        <mxCell id="ZW6nNcWDt0XmGfBWngsh-57" value="" style="sketch=0;outlineConnect=0;fontColor=#232F3E;gradientColor=none;strokeColor=#DB918D;fillColor=none;dashed=0;verticalLabelPosition=bottom;verticalAlign=top;align=center;html=1;fontSize=12;fontStyle=0;aspect=fixed;shape=mxgraph.aws4.resourceIcon;resIcon=mxgraph.aws4.thermostat;fontFamily=Helvetica;container=0;" parent="TxPhmfMa8DXI36r2z3gs-55" vertex="1">
          <mxGeometry x="282.5" y="274" width="82" height="82" as="geometry" />
        </mxCell>
        <mxCell id="ZW6nNcWDt0XmGfBWngsh-58" value="" style="sketch=0;outlineConnect=0;fontColor=#232F3E;gradientColor=none;strokeColor=#DB918D;fillColor=none;dashed=0;verticalLabelPosition=bottom;verticalAlign=top;align=center;html=1;fontSize=12;fontStyle=0;aspect=fixed;shape=mxgraph.aws4.resourceIcon;resIcon=mxgraph.aws4.generic;fontFamily=Helvetica;container=0;" parent="TxPhmfMa8DXI36r2z3gs-55" vertex="1">
          <mxGeometry x="328" y="197" width="77" height="77" as="geometry" />
        </mxCell>
        <mxCell id="TxPhmfMa8DXI36r2z3gs-11" value="" style="group;strokeColor=#DB918D;rounded=1;strokeWidth=4;container=0;dashed=1;" parent="TxPhmfMa8DXI36r2z3gs-55" vertex="1" connectable="0">
          <mxGeometry y="197" width="190" height="160" as="geometry" />
        </mxCell>
        <mxCell id="TxPhmfMa8DXI36r2z3gs-12" value="" style="sketch=0;outlineConnect=0;fontColor=#232F3E;gradientColor=none;strokeColor=#DB918D;fillColor=none;dashed=0;verticalLabelPosition=bottom;verticalAlign=top;align=center;html=1;fontSize=12;fontStyle=0;aspect=fixed;shape=mxgraph.aws4.resourceIcon;resIcon=mxgraph.aws4.lightbulb;fontFamily=Helvetica;container=0;" parent="TxPhmfMa8DXI36r2z3gs-55" vertex="1">
          <mxGeometry x="121.5" y="265" width="65" height="65" as="geometry" />
        </mxCell>
        <mxCell id="TxPhmfMa8DXI36r2z3gs-13" value="" style="sketch=0;outlineConnect=0;fontColor=#232F3E;gradientColor=none;strokeColor=#DB918D;fillColor=none;dashed=0;verticalLabelPosition=bottom;verticalAlign=top;align=center;html=1;fontSize=12;fontStyle=0;aspect=fixed;shape=mxgraph.aws4.resourceIcon;resIcon=mxgraph.aws4.house;fontFamily=Helvetica;container=0;" parent="TxPhmfMa8DXI36r2z3gs-55" vertex="1">
          <mxGeometry x="4" y="202" width="65" height="65" as="geometry" />
        </mxCell>
        <mxCell id="TxPhmfMa8DXI36r2z3gs-14" value="" style="sketch=0;outlineConnect=0;fontColor=#232F3E;gradientColor=none;strokeColor=#DB918D;fillColor=none;dashed=0;verticalLabelPosition=bottom;verticalAlign=top;align=center;html=1;fontSize=12;fontStyle=0;aspect=fixed;shape=mxgraph.aws4.resourceIcon;resIcon=mxgraph.aws4.thermostat;fontFamily=Helvetica;container=0;" parent="TxPhmfMa8DXI36r2z3gs-55" vertex="1">
          <mxGeometry x="63" y="289" width="62" height="62" as="geometry" />
        </mxCell>
        <mxCell id="TxPhmfMa8DXI36r2z3gs-15" value="" style="sketch=0;outlineConnect=0;fontColor=#232F3E;gradientColor=none;strokeColor=#DB918D;fillColor=none;dashed=0;verticalLabelPosition=bottom;verticalAlign=top;align=center;html=1;fontSize=12;fontStyle=0;aspect=fixed;shape=mxgraph.aws4.resourceIcon;resIcon=mxgraph.aws4.generic;fontFamily=Helvetica;container=0;" parent="TxPhmfMa8DXI36r2z3gs-55" vertex="1">
          <mxGeometry x="120" y="197" width="68" height="68" as="geometry" />
        </mxCell>
        <mxCell id="TxPhmfMa8DXI36r2z3gs-16" value="" style="sketch=0;outlineConnect=0;fontColor=#232F3E;gradientColor=none;strokeColor=#DB918D;fillColor=none;dashed=0;verticalLabelPosition=bottom;verticalAlign=top;align=center;html=1;fontSize=12;fontStyle=0;aspect=fixed;shape=mxgraph.aws4.resourceIcon;resIcon=mxgraph.aws4.utility;fontFamily=Helvetica;container=0;" parent="TxPhmfMa8DXI36r2z3gs-55" vertex="1">
          <mxGeometry x="4" y="267" width="65" height="65" as="geometry" />
        </mxCell>
        <mxCell id="TxPhmfMa8DXI36r2z3gs-17" value="" style="sketch=0;outlineConnect=0;fontColor=#232F3E;gradientColor=none;strokeColor=#DB918D;fillColor=none;dashed=0;verticalLabelPosition=bottom;verticalAlign=top;align=center;html=1;fontSize=12;fontStyle=0;aspect=fixed;shape=mxgraph.aws4.resourceIcon;resIcon=mxgraph.aws4.generic;fontFamily=Helvetica;container=0;" parent="TxPhmfMa8DXI36r2z3gs-55" vertex="1">
          <mxGeometry x="63" y="225" width="64" height="64" as="geometry" />
        </mxCell>
        <mxCell id="TxPhmfMa8DXI36r2z3gs-45" value="" style="group;strokeColor=#DB918D;rounded=1;strokeWidth=4;container=0;" parent="TxPhmfMa8DXI36r2z3gs-55" vertex="1" connectable="0">
          <mxGeometry x="457" y="197" width="190" height="160" as="geometry" />
        </mxCell>
        <mxCell id="TxPhmfMa8DXI36r2z3gs-47" value="" style="sketch=0;outlineConnect=0;fontColor=#232F3E;gradientColor=none;strokeColor=#DB918D;fillColor=none;dashed=0;verticalLabelPosition=bottom;verticalAlign=top;align=center;html=1;fontSize=12;fontStyle=0;aspect=fixed;shape=mxgraph.aws4.resourceIcon;resIcon=mxgraph.aws4.house;fontFamily=Helvetica;container=0;" parent="TxPhmfMa8DXI36r2z3gs-55" vertex="1">
          <mxGeometry x="463" y="197" width="68" height="68" as="geometry" />
        </mxCell>
        <mxCell id="TxPhmfMa8DXI36r2z3gs-48" value="" style="sketch=0;outlineConnect=0;fontColor=#232F3E;gradientColor=none;strokeColor=#DB918D;fillColor=none;dashed=0;verticalLabelPosition=bottom;verticalAlign=top;align=center;html=1;fontSize=12;fontStyle=0;aspect=fixed;shape=mxgraph.aws4.resourceIcon;resIcon=mxgraph.aws4.thermostat;fontFamily=Helvetica;container=0;" parent="TxPhmfMa8DXI36r2z3gs-55" vertex="1">
          <mxGeometry x="527" y="286" width="70" height="70" as="geometry" />
        </mxCell>
        <mxCell id="TxPhmfMa8DXI36r2z3gs-49" value="" style="sketch=0;outlineConnect=0;fontColor=#232F3E;gradientColor=none;strokeColor=#DB918D;fillColor=none;dashed=0;verticalLabelPosition=bottom;verticalAlign=top;align=center;html=1;fontSize=12;fontStyle=0;aspect=fixed;shape=mxgraph.aws4.resourceIcon;resIcon=mxgraph.aws4.generic;fontFamily=Helvetica;container=0;" parent="TxPhmfMa8DXI36r2z3gs-55" vertex="1">
          <mxGeometry x="577" y="197" width="64" height="64" as="geometry" />
        </mxCell>
        <mxCell id="TxPhmfMa8DXI36r2z3gs-50" value="" style="sketch=0;outlineConnect=0;fontColor=#232F3E;gradientColor=none;strokeColor=#DB918D;fillColor=none;dashed=0;verticalLabelPosition=bottom;verticalAlign=top;align=center;html=1;fontSize=12;fontStyle=0;aspect=fixed;shape=mxgraph.aws4.resourceIcon;resIcon=mxgraph.aws4.utility;fontFamily=Helvetica;container=0;" parent="TxPhmfMa8DXI36r2z3gs-55" vertex="1">
          <mxGeometry x="461" y="264" width="66" height="66" as="geometry" />
        </mxCell>
        <mxCell id="TxPhmfMa8DXI36r2z3gs-51" value="" style="sketch=0;outlineConnect=0;fontColor=#232F3E;gradientColor=none;strokeColor=#DB918D;fillColor=none;dashed=0;verticalLabelPosition=bottom;verticalAlign=top;align=center;html=1;fontSize=12;fontStyle=0;aspect=fixed;shape=mxgraph.aws4.resourceIcon;resIcon=mxgraph.aws4.generic;fontFamily=Helvetica;container=0;" parent="TxPhmfMa8DXI36r2z3gs-55" vertex="1">
          <mxGeometry x="524" y="225" width="68" height="68" as="geometry" />
        </mxCell>
      </root>
    </mxGraphModel>
  </diagram>
</mxfile>
